# xmcd CD database file
#
# Track frame offsets:
#	150
#	22842
#	43027
#
# Disc length: 874 seconds
#
# Revision: 0
# Processed by: cddbd v1.5PL3 Copyright (c) Steve Scherf et al.
# Submitted via: CDex 1.40Release
#
DISCID=18036803
DTITLE=宇徳 敬子 - メッセージ
DYEAR=1996
DGENRE=J-POP
TTITLE0=メッセージ
TTITLE1=YEAI YEAI
TTITLE2=メッセージ(Origianl Karaoke)
EXTD=YEAR: 1996
EXTT0=
EXTT1=
EXTT2=
PLAYORDER=
